# xmcd
#
# Track frame offsets: 
#        150
#        22145
#        46350
#        57125
#        70695
#        81235
#        106240
#        128072
#        142542
#        164630
#        185912
#        202052
#        221127
#        239167
#        252925
#        274237
#        295202
#
# Disc length: 4118 seconds
#
# Revision: 2
# Processed by: cddbd v1.5.2PL0 Copyright (c) Steve Scherf et al.
# Submitted via: ExactAudioCopy v0.99pb5
#
DISCID=0e101411
DTITLE=Various Artist - Texas Folk and Outlaw Music at the Kerrville Festival
DYEAR=1900
DGENRE=Country
TTITLE0=Texas Fever - Drunken Lady of the Morning
TTITLE1=Steve Fromholz - Birds and Wolverines
TTITLE2=The Threadgills - I'm a Drifter
TTITLE3=B.W. Stevenson - Shambala
TTITLE4=Willie Nelson - The Party's Over
TTITLE5=Timberline Rose - Camille's Blues
TTITLE6=Steve Fromholz - Dear Darcy
TTITLE7=Jerry Jeff Walker - Charlie Dunn
TTITLE8=Townes Van Zandt - Tecumseh Valley
TTITLE9=Bill and Bonnie Hearne - The Last Thing I Needed
TTITLE10=Guy Clark - Anyhow I Love You
TTITLE11=Rick Stein - Another Lonely Night In Austin
TTITLE12=Townes Van Zandt - Pancho and Lefty
TTITLE13=Augie Meyer - Down to Mexico
TTITLE14=Milton Carroll - Lovin' You That's All
TTITLE15=Hondo Crouch - Luckenbach Daybreak
TTITLE16=Bobby Bridger - Free My Spirit 'Fore My Spirit's Dead
EXTD=
EXTT0=
EXTT1=
EXTT2=
EXTT3=
EXTT4=
EXTT5=
EXTT6=
EXTT7=
EXTT8=
EXTT9=
EXTT10=
EXTT11=
EXTT12=
EXTT13=
EXTT14=
EXTT15=
EXTT16=
PLAYORDER=
